<svg id="Layer_1" xmlns="http://www.w3.org/2000/svg" viewBox="0 0 600 250"><style>.st0{opacity:.73}</style><title>Artboard</title><g id="Page-1" class="st0"><g id="Artboard"><g id="pixeden-logo-envato" transform="translate(50 59)"><path id="Shape" d="M182.3 32h-32.1v11h6.4v59.2h13V77.9h12.7c13.1 0 22.3-9.5 22.3-23.1S195.4 32 182.3 32zm-2.4 34.9h-10.4v-24h10.6c7.1 0 11.3 4.7 11.3 11.9 0 7.3-4.2 12.1-11.5 12.1z"/><path id="Rectangle-path" d="M212.4 32h10.9v11.6h-10.9z"/><path id="Shape_1_" d="M224.3 89.4V58.5c0-4.6-2-6.7-6.6-6.7h-12v10.7h4c1.4 0 2.2.7 2.2 2.2v30.8c0 4.7 2 6.7 6.6 6.7h12V91.6h-3.9c-1.5 0-2.3-.8-2.3-2.2z"/><path id="Shape_2_" d="M270.8 64.1c1-1.5 1.8-1.7 3.9-1.7h3.6V51.7h-8.7c-4.2 0-5.9.9-8.2 4.7l-5 8.3c-.7 1.3-1.6 3.3-1.6 3.3h-.2s-.9-2-1.6-3.3l-4.9-8.3c-2.3-3.9-4.1-4.7-8.2-4.7h-8.8v10.7h3.7c2.1 0 2.9.2 3.8 1.7l8.3 12.6-16.4 25.5h13.9l8.7-14.1c.7-1.1 1.5-2.7 1.5-2.7h.2s.7 1.7 1.4 2.7l8.8 14.1h14l-16.5-25.5 8.3-12.6z"/><path id="Shape_3_" d="M305.4 50.6c-15.1 0-25.6 10.9-25.6 26.4 0 14.3 10.4 26.4 27.1 26.4 12.6 0 20.3-7.6 20.3-7.6l-5.2-8.7s-6 5.6-14.1 5.6c-7.6 0-14.1-4.6-15.1-13.5h34.8s.3-3.2.3-4.6c-.1-13.5-8-24-22.5-24zm-12.3 19.8c1.4-6.3 5.9-10.2 12.4-10.2 5.1 0 9.3 4.1 9.5 10.2h-21.9z"/><path id="Shape_4_" d="M381.7 89.4V38.7c0-4.6-2.1-6.7-6.7-6.7h-12v10.7h4c1.4 0 2.2.7 2.2 2.2v8.9c0 1.7.1 3 .1 3h-.3s-3.6-6.1-14.5-6.1c-13.3 0-22.9 10.4-22.9 26.4 0 15.6 8.8 26.4 22.4 26.4 11.6 0 15.7-8.2 15.7-8.2h.2V97c0 3 1.7 5.1 6.2 5.1h11.6V91.6h-3.9c-1.4 0-2.1-.8-2.1-2.2zm-25 3.4c-7.4 0-12.5-6.2-12.5-15.8 0-10 5.7-15.6 12.7-15.6 8.4 0 12.5 7.7 12.5 15.5 0 11.1-6.1 15.9-12.7 15.9z"/><path id="Shape_5_" d="M415.3 50.6c-15.1 0-25.6 10.9-25.6 26.4 0 14.3 10.4 26.4 27.1 26.4 12.6 0 20.3-7.6 20.3-7.6l-5.2-8.7s-6 5.6-14.1 5.6c-7.6 0-14.1-4.6-15.1-13.5h34.8s.3-3.2.3-4.6c-.2-13.5-8.1-24-22.5-24zm-12.4 19.8c1.4-6.3 5.9-10.2 12.4-10.2 5.1 0 9.3 4.1 9.5 10.2h-21.9z"/><path id="Shape_6_" d="M496 91.6c-1.4 0-2.2-.8-2.2-2.2V69.7c0-13.3-6.4-19.2-17.6-19.2-10.2 0-15.6 6.2-17.8 10.5h-.2s.2-1.1.2-2.2v-1.5c0-3.6-2.2-5.6-6.6-5.6h-11.6v10.7h4c1.4 0 2.2.7 2.2 2.2v37.6h12.5V79c0-2.4.3-4.6 1-6.7 1.8-6 6.8-10.3 13.5-10.3 6.3 0 7.9 4.2 7.9 10.3v23.1c0 4.7 2 6.7 6.7 6.7h12V91.6h-4z"/><path id="Shape_7_" d="M22.9 17.7c.3-.1.6-.2.9-.4.6-.3 1.3-.5 1.9-.7.5-.2.9-.3 1.4-.4.6-.2 1.2-.3 1.8-.4.8-.1 1.5-.2 2.3-.4.6-.1 1.2-.2 1.8-.1h.8c1.4-.1 2.8-.1 4.2 0 1.1.1 2.2.2 3.3.5.9.2 1.7.4 2.6.6 1 .3 1.9.6 2.8 1 .8.3 1.5.6 2.2.9.9.4 1.7 1 2.6 1.4l1.5.9c1 .6 2.1 1.2 3.1 1.8.8.4 1.5.9 2.2 1.3.8.5 1.7 1 2.5 1.5.9.5 1.8 1.1 2.8 1.6l2.7 1.5c1 .6 2.1 1.2 3.1 1.8 1.4.8 2.7 1.6 4.1 2.4.9.5 1.8 1.1 2.7 1.6 1 .6 2 1.1 3 1.7 1.1.7 2.3 1.3 3.4 2 1.3.8 2.7 1.5 4 2.3.6.3 1.2.7 1.9 1.1l2.1 1.2c.7.4 1.5.8 2.2 1.2.6.3 1.2.7 1.7 1 1.1.6 2.3 1.3 3.4 2 .2.1.3.3.3.5 0 .9.1 1.8.1 2.7 0 2.6 0 5.2.1 7.8.1 2.2 0 4.3.1 6.4.1 2.3 0 4.6 0 6.8V78.1c0 .4.2.5.5.3.3-.1.5-.3.8-.5.8-.4 1.6-.9 2.4-1.3 1.1-.6 2.1-1.2 3.1-1.8 1-.5 1.9-1.1 2.8-1.6 1.3-.7 2.5-1.4 3.8-2.1 1-.6 2-1.2 2.9-1.8.9-.6 1.7-1.3 2.5-2 .9-.8 1.8-1.7 2.7-2.6.7-.8 1.3-1.6 1.9-2.4.4-.6.8-1.3 1.2-2 .3-.6.7-1.2 1-1.9.4-.8.7-1.6 1-2.5.1-.4.2-.8.3-1.1.2-.5.3-.9.4-1.4.1-.7.3-1.4.4-2 .1-.8.2-1.6.2-2.5v-.5c.1-.7.1-1.3 0-2s-.1-1.4-.1-2c0-.3-.1-.6-.1-.9-.1-.6-.1-1.3-.3-1.9 0-.6-.3-1.1-.4-1.7-.1-.4-.3-.8-.3-1.2-.2-.7-.4-1.3-.7-1.9-.2-.6-.4-1.1-.7-1.7-.4-.8-.9-1.6-1.3-2.4-.6-1.1-1.3-2.1-1.9-3.2-.7-1.1-1.4-2.2-2.2-3.2-1.1-1.4-2.1-2.8-3.3-4.1-.7-.8-1.4-1.5-2.1-2.3-1.3-1.4-2.8-2.8-4.3-4-1.1-1-2.2-1.9-3.4-2.8l-3-2.1c-.6-.4-1.1-.8-1.7-1.1-.9-.5-1.8-1-2.6-1.5-.9-.6-1.9-1.1-2.9-1.5-1.1-.1-2-.5-2.9-.9-.8-.3-1.5-.6-2.3-1-.3-.1-.5-.2-.8-.3-.4-.1-.8-.2-1.1-.4-.6-.2-1.3-.5-1.9-.7-.7-.2-1.4-.4-2.2-.6-1.1-.4-2.2-.6-3.4-.9L76 1.2C74.9 1 73.8 1 72.7.8c-1-.1-2-.2-3-.2-.9 0-1.8-.1-2.7-.1-.2 0-.4 0-.6-.1-.3-.1-.6-.1-.9 0-.1 0-.2.1-.3.1-.6 0-1.2.1-1.8.1-.7 0-1.4.1-2.1.1-1.2 0-2.3.3-3.4.3-.2 0-.5 0-.7.1-1.3.3-2.6.4-3.8.7-1 .2-2 .4-3 .7-1.2.3-2.3.6-3.5 1-.7.2-1.3.4-2 .6s-1.3.5-2 .7c-.6.2-1.2.5-1.8.7l-1.5.6c-.7.3-1.4.6-2.1 1-.6.3-1.2.6-1.8 1-.8.4-1.5.9-2.3 1.3-.5.3-1 .6-1.4.9-.8.4-1.6.9-2.3 1.4-1 .8-2.1 1.4-3.1 2.2-.8.6-1.6 1.2-2.4 1.9-.6.5-1.1 1-1.7 1.5-.1 0-.1.1-.2.2-.1.2-.1.3.1.3s.3-.1.5-.1z"/><path id="Shape_8_" d="M131.6 62.1c0-.6-.2-1.3-.2-1.9 0-.4 0-.8-.1-1.2-.1-.5-.1-1-.2-1.5 0-.4-.1-.7-.2-1.1l-.3-1.8c-.1-.6-.3-1.2-.3-1.8v-.1c-.1-.2-.3-.3-.5-.1-.1.1-.1.3-.1.4-.2.8-.2 1.7-.4 2.5 0 .6-.3 1.1-.4 1.7-.1.3-.1.6-.2.9-.3.7-.5 1.4-.7 2.1-.3.7-.6 1.5-.9 2.2-.4.8-.8 1.7-1.3 2.4-.3.5-.5 1-.9 1.4-.6.8-1.1 1.6-1.8 2.4-1.1 1.3-2.2 2.6-3.5 3.7-.9.8-1.9 1.6-2.9 2.4-.7.5-1.4.9-2.1 1.4-1.3.8-2.6 1.5-3.9 2.2-1 .6-2 1.1-3 1.7-.9.5-1.8 1.1-2.7 1.6-2 1.2-4.1 2.3-6.1 3.5-1.5.9-3.1 1.8-4.6 2.7-.7.4-1.3.8-2 1.2-.4.2-.9.5-1.3.8-.6.3-1.1.6-1.7.9-.9.5-1.8 1-2.7 1.6-1.2.7-2.4 1.4-3.7 2.1L76.6 98c-1.1.7-2.2 1.3-3.4 2-1 .6-2.1 1.2-3.1 1.8-1 .6-2.1 1.2-3.2 1.8-.2.1-.3.1-.5 0-.6-.4-1.2-.7-1.8-1.1-.5-.3-1-.5-1.5-.8s-1.1-.6-1.6-.9c-.9-.6-1.9-1.1-2.8-1.6-.9-.5-1.9-1.1-2.8-1.6-.9-.5-1.9-1.1-2.8-1.6-.8-.4-1.5-.8-2.2-1.3-1-.6-1.9-1.2-2.9-1.7-.9-.5-1.7-1-2.6-1.5-.8-.5-1.7-1-2.5-1.6-1-.6-2.1-1.2-3.1-1.9-.1 0-.2-.1-.3-.1-.3-.1-.5 0-.4.4.1.7 0 1.4 0 2v16.1c0 .6.2 1.2.2 1.9v.3c.1.4.2.9.3 1.3 0 .1 0 .2.1.3.2.5.2 1 .4 1.5.1.5.3 1 .5 1.5l.6 1.8c.4 1 .8 1.8 1.3 2.7.5.9 1.1 1.7 1.6 2.6.6.9 1.2 1.7 1.9 2.5.6.7 1.3 1.5 2.1 2.1.5.5 1.1.9 1.7 1.4.6.5 1.3.9 1.9 1.3.7.5 1.5.9 2.3 1.3.9.4 1.9.9 2.9 1.2.6.2 1.2.5 1.9.6.9.2 1.7.4 2.6.6 1.2.2 2.4.4 3.7.4 2.3 0 4.5 0 6.8-.2.5 0 .9 0 1.4-.1 1-.2 2-.2 2.9-.4 1.5-.2 3.1-.5 4.6-.8l1.5-.3c.5-.1 1-.2 1.5-.4.5-.1.9-.3 1.4-.4.5-.2 1-.4 1.6-.5.4-.1.8-.3 1.2-.4.4-.1.7-.2 1-.4.3-.1.7-.3 1-.4.7-.3 1.4-.5 2.1-.8.2-.1.5-.2.7-.3.5-.2 1.1-.5 1.6-.7s.9-.5 1.4-.7c.8-.4 1.6-.7 2.3-1.2.6-.3 1.2-.7 1.8-1l2.4-1.5c1.4-.9 2.8-1.9 4.2-3 .9-.7 1.8-1.4 2.6-2.2 1.1-.9 2.1-1.9 3.1-2.8 1.2-1.2 2.3-2.4 3.5-3.7.6-.7 1.3-1.5 1.9-2.2.5-.6.9-1.3 1.4-1.9.8-1 1.4-2 2.1-3 .9-1.3 1.7-2.7 2.5-4.1.6-1.1 1.2-2.3 1.8-3.5.4-.8.7-1.5 1.1-2.4.3-.6.6-1.2.8-1.9.3-.8.6-1.5.9-2.3.3-.7.4-1.4.7-2 .2-.4.3-.9.4-1.4.2-.8.5-1.6.7-2.4.2-1 .5-1.9.6-2.9.1-.5.1-1 .3-1.4.2-.7.2-1.4.4-2.2.1-.7.1-1.4.3-2.1.1-.5 0-1 .1-1.5.2-1.3.2-2.7.3-4 .1-2 0-4.1-.1-6.1-.2.1-.3 0-.3-.1z"/><path id="Shape_9_" d="M45.8 126.9c-.9-.7-1.8-1.5-2.6-2.3-.6-.6-1.2-1.2-1.8-1.9-.8-1-1.6-1.9-2.3-3-.4-.7-.9-1.3-1.2-2-.4-.6-.7-1.3-1-2-.4-.8-.7-1.5-1-2.3-.2-.6-.5-1.2-.7-1.9-.1-.3-.3-.6-.3-1-.1-.6-.3-1.1-.4-1.7 0-.2-.2-.4-.2-.7L34 106c-.1-1-.3-2-.3-3V49.2c0-.6.1-1.1.1-1.7 0-.2.1-.3.2-.4.2-.1.4-.2.6-.4 1.3-.7 2.5-1.5 3.8-2.2 1.1-.6 2.2-1.3 3.3-1.9 1.1-.7 2.3-1.3 3.4-2s2.2-1.3 3.3-1.9c1-.6 1.9-1.1 2.9-1.7.7-.4 1.4-.8 2.2-1.3 1-.6 2-1.1 2.9-1.6l2.7-1.5c.4-.2.7-.4 1.1-.6.3-.2.3-.4 0-.6l-.6-.3c-1-.6-2-1.2-3-1.7-.8-.5-1.6-1-2.5-1.4-1.3-.7-2.6-1.5-3.9-2.2-1.6-.9-3.1-1.8-4.7-2.7-.9-.4-1.7-.8-2.6-1.1-.6-.2-1.3-.5-1.9-.6-.1 0-.1 0-.2-.1-.2-.1-.4-.2-.7-.2h-.2c-.3-.2-.6-.1-.8-.2-.6-.2-1.3-.3-1.9-.4-.4-.1-.9-.2-1.3-.2s-.8-.1-1.2-.2c-.8-.1-1.5-.1-2.3-.1-.6 0-1.2 0-1.7.1h-.4c-.6.1-1.2.1-1.8.1-.7 0-1.4.3-2.2.3h-.1c-.5.3-1.1.3-1.7.4-.4.1-.9.3-1.4.4-.6.2-1.2.4-1.8.7-.7.3-1.5.7-2.2 1.1-1.1.7-2.2 1.4-3.2 2.2-1 .9-2 1.8-2.9 2.8-.3.3-.5.7-.8 1-.4.5-.8 1-1.2 1.6-.6 1.3-1.4 2.6-2 3.8-.7 1.3-1.3 2.6-2 3.9-.5 1-.9 2.1-1.4 3.1-.1.2-.2.5-.3.7-.2.6-.4 1.3-.7 1.9-.2.7-.4 1.3-.6 1.9-.2.5-.4 1-.5 1.5-.1.4-.3.9-.4 1.3-.1.5-.2 1.1-.4 1.6s-.2 1.1-.4 1.6v.2c0 .2-.1.3-.1.4-.2.8-.3 1.6-.5 2.3-.1.8-.3 1.6-.3 2.4v.1c-.1.4-.2.8-.2 1.2s0 .8-.1 1.2C1 61.1 1 62.2 1 63.3V69c0 .6 0 1.1.1 1.7.2 1.1.2 2.3.4 3.4.1.9.3 1.8.4 2.8 0 .4.1.8.2 1.2.1.6.2 1.2.4 1.8.1.5.3 1.1.4 1.6.2.8.4 1.6.7 2.4.1.3.2.6.3 1 .2.7.5 1.5.7 2.2.2.6.4 1.2.6 1.7.3.8.6 1.6 1 2.4.3.7.6 1.5 1 2.2l1.5 3c.6 1.2 1.3 2.4 2.1 3.6.9 1.4 1.8 2.8 2.7 4.1 1 1.4 2.1 2.8 3.2 4.1.8.9 1.6 1.8 2.5 2.7 1.1 1.2 2.2 2.3 3.4 3.3.8.7 1.6 1.4 2.4 2 .9.8 1.9 1.5 2.9 2.3 1.1.8 2.2 1.5 3.3 2.2l1.5.9c.6.3 1.2.7 1.8 1 .7.4 1.4.8 2.2 1.2 1 .5 2.1 1 3.2 1.5.9.4 1.8.8 2.7 1.1.3.1.5.2.8.3.3.1.7.3 1 .4.4.1.8.2 1.1.4.4.1.8.1 1.1.4h.2c.1 0 .2 0 .2-.1.1-.1 0-.2-.1-.2-.6-.3-.8-.5-1.1-.7z"/></g></g></g></svg>