<svg id="Layer_1" xmlns="http://www.w3.org/2000/svg" viewBox="0 0 600 250"><style>.st0{opacity:.73}</style><title>Artboard</title><g id="Page-1" class="st0"><g id="Artboard"><g id="envato-logo" transform="translate(50 77)"><path id="Shape" d="M64.8 10.1C24 54.1 12.2 85.4 12.2 85.4c8.9 10.3 24 9.4 24 9.4 15.9.5 25.7-9.4 25.7-9.4C81.7 65.5 79.2 8.8 79.2 8.8c-4-8.7-14.4 1.3-14.4 1.3z"/><path id="Shape_1_" d="M1.9 44.5S-4.3 57 6 78l27.4-60.2c-.4.1-24.8 8.6-31.5 26.7z"/><path id="Shape_2_" d="M379 81.2c-1.7.1-3.3.1-5-.3-2.7-.7-4.4-2.4-4.9-5.2-.3-1.6-.2-3.1.1-4.6.8-4.3 1.6-8.7 2.4-13 1.5-7.9 2.9-15.8 4.4-23.7.1-.4.1-.7.2-1.1h21.7c.9-1.8 4.4-10.6 4.5-11.2h-24.7c1.4-7.3 2.8-14.5 4.2-21.7h-.1c-.1.1-.2.2-.3.2-1.6.8-3.1 1.6-4.7 2.3-3.4 1.7-6.7 3.3-10.1 5-.4.2-.6.4-.6.8s-.1.8-.2 1.3c-.6 3.5-1.1 7-1.7 10.4-.5 3.2-1 6.5-1.5 9.7-.5 3.5-1.1 6.9-1.6 10.4-.5 3.2-1 6.4-1.5 9.7-.6 3.5-1.1 7-1.7 10.5-.5 3.2-1 6.5-1.5 9.7-.2 1.1-.4 2.3-.5 3.4-.1 2.2.1 4.4.6 6.5 1.2 5 4.2 8.4 9 10.1 2.4.9 4.8 1.3 7.3 1.3 2.3.1 4.6-.1 6.8-.4l3.6-.6c.8-3.6 1.7-7.2 2.5-10.8-.3.1-.4.1-.6.1-2 .6-4 1-6.1 1.2z"/><path id="Shape_3_" d="M498.6 24.9c-.5 0-.8.1-1.1.6-2 3.1-4 6.1-6 9.1-.1.1-.2.3-.4.5-.1-.3-.1-.4-.2-.6-.5-1.7-1-3.4-1.6-5.1l-1.2-3.9c-.1-.2-.1-.4-.4-.4H486L483 38h1.9c.7-2.7 1.4-5.5 2.1-8.2h.1c.8 2.8 1.6 5.7 2.5 8.5h1.3c.4 0 .6-.1.9-.5 1.7-2.5 3.3-5 5-7.4.1-.2.2-.3.3-.5h.1l-.6 8.1h2v-.3c.3-3.7.5-7.3.7-10.9 0-.2.1-.3.1-.5v-1.4h-.8z"/><path id="Shape_4_" d="M332.1 19.5c-3.2-.3-6.4-.2-9.6.2-4.4.6-8.7 1.8-12.7 3.6-5.2 2.3-9.8 5.5-14.1 9.1-3.6 3.1-6.8 6.6-9.2 10.7-4.5 7.5-6.8 15.5-6.2 24.3.2 3.4.9 6.6 2.2 9.7 3 7.2 8.1 12.3 15.6 14.8 1 .3 2.1.7 3.1.8 2.6.3 5.2.3 7.9-.1 4-.5 7.8-1.7 11.3-3.8 5.3-3.1 9.2-7.4 11.9-12.9l.3-.6h.1c-1.1 5.2-2.3 10.4-3.4 15.6h13.1c3.9-21.7 7.9-43.5 11.8-65.2-.8-.4-1.5-.7-2.2-1-6.4-2.7-12.9-4.6-19.9-5.2zm6.4 17.1c-.7 6.8-2.4 13.5-4.2 20-1.9 6.6-5.4 12.3-10.1 17.2-2.8 2.9-5.9 5.2-9.7 6.6-2.1.8-4.3 1.2-6.6 1.2-1.3 0-2.5 0-3.7-.3-5.3-1.6-8.7-5.1-10.3-10.3-.7-2.2-.8-4.4-.7-6.6.3-4.5 1.7-8.7 3.5-12.8.7-1.5 1.5-3.1 2.3-4.6 1-1.8 2.4-3.4 3.8-4.8 5.4-5.4 11.8-8.9 19.2-10.4 5.4-1.1 10.7-.8 15.8 1.1.2.1.5.2.8.3.1 1.2 0 2.3-.1 3.4z"/><path id="Shape_5_" d="M458.6 26.7c-5.4-4.6-11.8-6.9-18.9-7.3-5-.3-10 .4-14.8 2-12.3 4.3-21.3 12.3-27 23.9-2.6 5.3-3.9 11-4 16.7 0 2.7.2 5.2.8 7.7 2.3 9.4 7.6 16.3 16.4 20.5 5.4 2.6 11.2 3.4 17.2 3 3.9-.3 7.7-1.2 11.3-2.6 6.5-2.4 12.1-6.2 16.9-11.2 4.8-4.9 8.4-10.7 10.5-17.2 2-6.3 2.6-12.7 1.1-19.2-1.3-6.5-4.5-12-9.5-16.3zm-8.3 39.7c-3.5 5.6-8.1 9.9-14.2 12.7-3.4 1.6-7 2.4-10.7 2.3-7.7-.2-14-4.8-16.4-12.5-.9-2.9-1.1-5.9-.8-8.9.8-7.3 4-13.5 9.1-18.8 3.3-3.4 7.1-6 11.6-7.6 3.2-1.2 6.5-1.7 9.8-1.4 7.2.8 12.2 4.5 14.8 11.3 1 2.5 1.3 5 1.3 7.7 0 5.4-1.6 10.5-4.5 15.2z"/><path id="Shape_6_" d="M148.8 37c-.1-1.4-.3-2.9-.7-4.3-1.6-5.3-4.8-9-9.9-11.1-2.4-1-4.9-1.5-7.5-1.6-3.2-.2-6.5.1-9.7.8-5.4 1.1-10.5 3.2-15.3 6-5.3 3.1-10 6.9-13.9 11.8-2.8 3.5-5 7.4-6.3 11.7-.6 1.8-.9 3.7-1.1 5.6-.3 2-.6 3.9-.7 5.9-.2 3.8 0 7.5 1 11.2 1.9 7 6.1 12.2 12.6 15.4 3.6 1.8 7.5 2.6 11.5 3 3.6.3 7.1.1 10.6-.4 4.1-.6 8.1-1.6 12-2.9 1.1-.4 2.3-.8 3.4-1.2.5-4.4 1-8.7 1.5-13.2-.2.1-.4.2-.5.3-5.3 3.6-11 5.8-17.4 6.5-2.8.3-5.6.2-8.4-.5-3.1-.8-5.8-2.2-7.9-4.6-2.2-2.3-3.4-5.1-4.1-8.2V67h.8c2.6-.1 5.3-.2 7.9-.4 4.6-.2 9.1-.7 13.7-1.5 3.5-.6 7-1.4 10.4-2.6 3.3-1.1 6.5-2.6 9.3-4.7 4.3-3.2 7.1-7.4 8.2-12.6.7-2.7.8-5.5.5-8.2zM135 44.2c-.6 2.5-2.1 4.5-4.1 6.2-1.9 1.6-4.1 2.7-6.4 3.6-2.9 1.1-5.9 1.8-9 2.2-3.6.5-7.1.7-10.7.6-2-.1-3.9-.2-5.9-.4-.1 0-.3-.1-.5-.1.1-.3.1-.6.2-.9 1.4-4.8 3.9-9 7.2-12.6 3.8-4.2 8.4-7.4 13.7-9.3 2.4-.9 4.8-1.4 7.4-1.3 1.3 0 2.5.2 3.6.7 2.1.9 3.5 2.4 4.1 4.6.9 2.2 1 4.5.4 6.7z"/><path id="Shape_7_" d="M209.8 21.9c-2.7-1.1-5.5-1.7-8.4-1.9-3.5-.2-6.9.1-10.3.9-6.1 1.4-11.1 4.4-15 9.3-1.5 1.9-2.8 4-3.9 6.1-.1.1-.2.3-.2.4 0 0-.1 0-.1-.1.8-4.8 1.5-9.5 2.3-14.3h-13.9c-3.9 22.9-7.9 45.8-11.8 68.7H162c.1-.2.1-.3.1-.5.8-4.8 1.6-9.7 2.5-14.5.9-4.7 1.9-9.4 3.3-14 1.6-5.4 3.7-10.6 6.7-15.4 3.4-5.5 7.9-9.7 13.7-12.6 3.4-1.7 7-2.6 10.9-2.4 1.4.1 2.7.4 3.9 1.1 1.4.7 2.5 1.9 3 3.4.3.9.5 1.8.6 2.7.3 2.3.1 4.6-.3 6.8-.8 4.7-1.6 9.3-2.4 14-.9 5-1.8 10-2.6 15-1 5.5-1.9 11-2.9 16.5v.5h13.7c0-.2.1-.3.1-.5.6-3.1 1.2-6.3 1.8-9.4 1-5.2 1.9-10.3 2.9-15.5l2.7-14.7c.6-3 1.2-6 1.2-9.1.1-3.1-.1-6.2-1-9.2-1.7-5.4-5-9.2-10.1-11.3z"/><path id="Shape_8_" d="M290.1 21.7h-13.7c-.5 0-.8.2-1 .6-5.1 9.2-10.3 18.4-15.4 27.6-3.5 6.2-6.9 12.4-10.4 18.6-.1.2-.2.4-.3.5h-.1c-3.5-15.6-6.9-31.3-10.4-46.9h-13.5c5.7 23.5 11.4 46.9 17.1 70.4h4.6c.5 0 .7-.1 1-.5 2.8-4.6 5.5-9.3 8.3-13.9 11.1-18.5 22.3-37.1 33.4-55.6.1-.3.2-.5.4-.8z"/><path id="Shape_9_" d="M483.9 25H474c-.1.7-.2 1.4-.4 2.1h1.9c.6 0 1.2-.1 1.9.1-.7 3.6-1.3 7.1-2 10.7h2.3c.7-3.6 1.4-7.1 2-10.7h3.7c.2-.8.3-1.5.5-2.2z"/></g></g></g></svg>