<svg id="Layer_1" xmlns="http://www.w3.org/2000/svg" viewBox="0 0 600 250"><style>.st0{opacity:.73}</style><title>Artboard</title><g id="Page-1" class="st0"><g id="Artboard"><g id="appstorm-logo-envato" transform="translate(50 79)"><path id="Shape" d="M45.8 39.7c0-11.8-4.4-24-22.3-24-7.4 0-14.4 2.1-19.3 5.2l2.4 7c4.1-2.7 9.8-4.4 15.3-4.4 12 0 13.3 8.7 13.3 13.6v1.2C12.6 38.3 0 46 0 60.2c0 8.5 6.1 16.9 18 16.9 8.4 0 14.7-4.1 17.9-8.7h.4l.8 7.4h9.7c-.7-4-1-9-1-14.1v-22zM35.5 56c0 1.1-.2 2.3-.6 3.4-1.7 5-6.6 9.8-14.2 9.8-5.5 0-10.1-3.3-10.1-10.2 0-11.4 13.2-13.5 24.9-13.2V56z"/><path id="Shape_1_" d="M90 15.7c-10.1 0-17.4 4.2-22 11.4h-.3L67.2 17h-8.4l-.1 19.2v54.4h10V67.9h.3c3.7 5.8 10.9 9.2 19.1 9.2 14.6 0 28.2-10.4 28.2-31.5 0-17.9-11.3-29.9-26.3-29.9zm-3.8 53c-8.1 0-14.9-5.1-16.9-12.5-.3-1.3-.5-2.8-.5-4.4v-10c0-1.5.4-3 .8-4.4 2.2-8 9.3-13.2 17-13.2C98.5 24.2 105 34.3 105 46c0 13.5-6.9 22.7-18.8 22.7z"/><path id="Shape_2_" d="M258.2 41.4c-6.3-2.3-9.7-4.2-10.8-7.5l2.5-8.1c1.7-1.3 4-2.1 6.9-2.1 5.5 0 9.7 1.9 12 3.3l2.7-7.6c-3.3-1.9-8.5-3.6-14.4-3.6-1.4 0-2.8.1-4.1.3l3.4-10.7c.7-2.5-2.2-4.9-4.9-4.9h-64.3c-2.7 0-4.3 2-5.2 4.9l-7.1 22.4c-4.6-7.6-12.4-12.1-21.6-12.1-10.1 0-17.4 4.2-22 11.4h-.3l-.5-10.1h-8.4l-.1 19.2v54.4h10V67.9h.2c3.7 5.8 10.9 9.2 19.1 9.2 2.9 0 5.7-.4 8.4-1.2l-2.5 7.9c-.8 2.8 2.2 4.9 4.9 4.9h63.7c2.7 0 5.1-2.2 5.8-4.9l3.6-11.5c4.1 2.3 10 3.8 16.3 3.8 14 0 22-7.2 22-17.3.1-8.6-5.1-13.6-15.3-17.4zM149.4 68.7c-8.1 0-14.9-5.1-16.9-12.5-.3-1.3-.5-2.8-.5-4.4v-10c0-1.5.4-3 .8-4.4 2.2-8 9.4-13.2 17-13.2 11.9 0 18.4 10.1 18.4 21.8 0 1.2-.1 2.4-.2 3.5l-3.5 11.1c-3.1 5.1-8.3 8.1-15.1 8.1zm42.8 9l16.4-32.6-18.1-7.4 28.4-26.1-9.4 19.4 19 7.2-36.3 39.5zm59.7-9.4c-5.3 0-10.8-2.1-14-4.1l6-19.2c2.3 1.6 5.1 3 8.5 4.2 7.9 2.9 10.9 5.6 10.9 10.6 0 4.7-3.6 8.5-11.4 8.5z"/><path id="Shape_3_" d="M295.6 1.8h-10.4v14.1H276V24h9.1v32c0 6.9 1.1 12.1 4.1 15.3 2.5 2.9 6.5 4.5 11.5 4.5 4.1 0 7.4-.6 9.5-1.5l-.5-8c-1.3.4-3.4.7-6.2.7-5.9 0-8-4.1-8-11.4V24h15.3v-8.1h-15.3l.1-14.1z"/><path id="Shape_4_" d="M342.4 15.7c-16.3 0-29.1 11.5-29.1 31.2 0 18.6 12.2 30.2 28.1 30.2 14.2 0 29.2-9.5 29.2-31.2.1-17.9-11.3-30.2-28.2-30.2zm-.4 53.4c-10.4 0-17.8-9.7-17.8-22.6 0-11.2 5.5-22.8 18.1-22.8s17.6 12.6 17.6 22.6c-.1 13.2-7.8 22.8-17.9 22.8z"/><path id="Shape_5_" d="M388.4 28.6h-.5l-.4-11.5h-9.3c.4 5.5.5 11.4.5 18.3v38.1h10.6v-29c0-1.8.2-3.5.5-5 1.5-8 6.8-13.7 14.3-13.7 1.5 0 2.5.1 3.6.4V16.1c-1-.2-1.8-.4-3-.4-7.2 0-13.6 5-16.3 12.9z"/><path id="Shape_6_" d="M479.6 15.7c-5.6 0-9.5 1.5-13 4.1-2.4 1.8-4.7 4.4-6.6 7.6h-.3c-2.5-6.9-8.6-11.8-16.6-11.8-9.7 0-15.2 5.2-18.4 10.8h-.4l-.5-9.5h-9.3c.4 4.9.5 9.8.5 15.9v40.5h10.4v-33c0-1.8.2-3.6.9-5.2 1.7-5.3 6.5-10.7 13.2-10.7 8.1 0 12.2 6.8 12.2 16.1v32.9h10.4v-34c0-1.9.4-3.9.8-5.3 1.8-5.2 6.6-9.7 12.6-9.7 8.6 0 12.7 6.8 12.7 18.1v30.9h10.4V41.2c.3-20.4-11.2-25.5-19-25.5z"/></g></g></g></svg>